# xmcd
#
# Track frame offsets:
# 150
# 18885
# 34670
# 44215
# 57085
# 72085
# 83262
# 100122
# 114367
# 132135
#
# Disc length: 2068 seconds
#
#
# Revision: 0
# Processed by: cddbd v1.5.1PL0 Copyright (c) Steve Scherf et al.
# Submitted via: FreeRIP 2.90 
#
DISCID=7308120a
DTITLE=Various Artist - Country Christmas - Disc 1
DYEAR=2002
DGENRE=Country
TTITLE0=Santa Claus (I Still Believe in You) - Alalbama
TTITLE1=Toyland - Lorrie Morgan
TTITLE2=Winter Wonderland - John Anderson
TTITLE3=Noel, Noel - Steve Wariner
TTITLE4=Santa Baby - Mindy McCready
TTITLE5=Rudolph hte Red Nosed Reindeer - Aaron Tippin
TTITLE6=Little Drimmer Boy - Restless Heart
TTITLE7=Bleu Christmas - Earl Thomas Conley
TTITLE8=There's A New Kid in Town - Michael Johnson
TTITLE9=Please Come Home For Christmas -Lee Roy Parnell
EXTD=
EXTT0=
EXTT1=
EXTT2=
EXTT3=
EXTT4=
EXTT5=
EXTT6=
EXTT7=
EXTT8=
EXTT9=
PLAYORDER=
